<svg xmlns="http://www.w3.org/2000/svg" xmlns:svg="http://www.w3.org/2000/svg" id="svg4184" width="24" height="24" version="1.1" viewBox="0 0 24 24"><metadata id="metadata4192"/><path style="opacity:1;fill:#cddc39;fill-opacity:1;stroke:none;stroke-width:30;stroke-linecap:butt;stroke-miterlimit:4;stroke-dasharray:none;stroke-dashoffset:0;stroke-opacity:1" id="rect4194" d="M 12 2 A 7 7 0 0 0 5 9 L 9.5 9 A 2.5 2.5 0 0 1 12 6.5 L 12 2 z"/><path style="opacity:1;fill:#009688;fill-opacity:1;stroke:none;stroke-width:30;stroke-linecap:butt;stroke-miterlimit:4;stroke-dasharray:none;stroke-dashoffset:0;stroke-opacity:1" id="rect4756" d="M 12 2 L 12 6.5 A 2.5 2.5 0 0 1 14.5 9 L 19 9 A 7 7 0 0 0 12 2 z"/><path style="opacity:1;fill:#e91e63;fill-opacity:1;stroke:none;stroke-width:30;stroke-linecap:butt;stroke-miterlimit:4;stroke-dasharray:none;stroke-dashoffset:0;stroke-opacity:1" id="rect4758" d="M 14.5 9 A 2.5 2.5 0 0 1 12 11.5 L 12 22 C 12 22 19 14.25 19 9 L 14.5 9 z"/><path style="opacity:1;fill:#ff9800;fill-opacity:1;stroke:none;stroke-width:30;stroke-linecap:butt;stroke-miterlimit:4;stroke-dasharray:none;stroke-dashoffset:0;stroke-opacity:1" id="rect4760" d="M 5 9 C 5 14.25 12 22 12 22 L 12 11.5 A 2.5 2.5 0 0 1 9.5 9 L 5 9 z"/></svg>